<svg enable-background="new 0 0 165 147" viewBox="0 0 165 147" xmlns="http://www.w3.org/2000/svg"><g fill="#378991"><path d="m54.9 26.3c-.9.6-1.6 1.3-2.4 2-.1.1-.2.2-.3.3-.3.3-.6.6-.9.9-.4.4-.9.8-1.2 1.3v.1.1c-.2.1-.3.3-.4.5 0 .1-.1.1-.1.2-.2.3-.4.5-.6.8 0 0 0 0-.1.1s-.2.2-.3.3v.1.1c-.2.2-.4.3-.5.5 0 0 0 .1-.1.1-.2.2-.3.4-.5.7-.1.2-.2.4-.3.5v.1.1c-.1.1-.2.2-.2.3-.1.1-.1.2-.2.4s-.1.3-.2.5c0 .1-.1.1-.1.2-.1.3-.3.6-.4.8s-.2.3-.3.5c0 .1 0 .1-.1.1-.1.1-.1.2-.1.3s-.1.1-.2.2v.1c-.1.1-.2.3-.3.4v.1.1c-.3.3-.4.7-.6 1.1-.2.6-.4 1.1-.7 1.6-.2.6-.5 1.2-.7 1.8v.1s0 0-.1 0v.1.1c-.1.1-.2.3-.2.5 0 .1-.1.2-.1.3-.1.2.1.5.3.5-.6-.2-.5.4-.6.7 0 .2-.2.4-.1.6v.1.1c-.1.1-.1.3-.1.4v.1c-.1.2-.1.5-.2.7 0 .1-.1.2-.1.3v.1.1c-.2.3-.3.6-.4 1 0 .1 0 .1.1.1.5.2 1 .1 1.4.3h.1c0-.1.1-.1.1 0s.1.1.1 0h.1.1.1.1.1c.1.1.3.1.4.1h.5c.2.1.4 0 .7 0h.2c.2.1.4.1.6.1h.3.2c.5 0 1 .2 1.4.1h.1.1c.2 0 .3 0 .5-.1h.1.1c.1 0 .3-.1.4-.1.8-.2 1.5-.4 2.2-.7.1 0 .2-.1.3-.2h.1.1c.3-.1.7-.2 1-.3.1 0 .2-.1.3-.2h.1c.3-.1.7-.1 1-.3h.1.1c.2-.1.4-.1.6-.2.1 0 .1-.1.2-.1h.2c.4-.1.7-.2 1.1-.3.1 0 .1-.1.2-.1s.1 0 .2-.1c.3-.1.7-.1 1-.3h.1.1c.2-.1.4-.1.5-.3h.1.1l.2-.2c-.4.4-.3.4-.2.4.2 0 .3-.2.4-.3h.1.1c.1-.1.2-.2.3-.2v-.1s0-.1.1-.1h.1.1c.6-.4 1.2-.9 1.8-1.4.4-.4 1-.6 1.3-1.1.1-.1.2-.2.3-.3s.2-.2.3-.4c.6-.7 1.3-1.4 1.9-2.1.1-.1.2-.3.4-.4.4-.4.8-.9 1.2-1.3 0 0 0 0 0-.1 0 0 0-.2.1-.2.2-.1.3-.3.4-.4 1-1.3 2-2.6 2.9-4 .3-.3.5-.6.7-.9s.4-.5.6-.8c.4-.5.7-1 1-1.6.1-.1.2-.2.3-.3v-.1c.1-.1.2-.2.3-.4.1-.1.2-.2.2-.3 0 0 0 0 0-.1v-.1c.1-.1.2-.2.3-.3 0-.1 0-.1.1-.1.1-.1.2-.2.2-.3.1-.1.2-.3.3-.4s.2-.3.3-.4c.4-.6.9-1.3 1.3-1.9 0 0 0 0 0-.1v-.1c.2-.1.3-.2.3-.4 0 0 0-.1.1-.1.5-.5 1-.9 1.4-1.4.6-.7 1.3-1.3 1.9-1.9.5-.5.9-1 1.4-1.5.4-.4.7-.8 1.1-1.2.1-.1.3-.2.4-.4 0 0 0-.1.1-.1.1-.1.2-.2.3-.3v-.1-.1c.2-.1.3-.3.4-.4 0 0 0 0 0-.1.1-.2.2-.3.4-.4 0 0 0 0 0-.1v-.1c.1-.1.3-.2.4-.4 0 0 .1-.1.1-.1s0-.1.1-.1c.1-.2.3-.3.4-.5.1-.1.1-.2.2-.3.1-.2.2-.4.3-.6 0-.1 0-.2.1-.2.1-.3.3-.6.4-.9 0-.1-.1-.2-.2-.1-.1 0-.1 0-.2.1-.1 0-.1.1-.2.1-.2.1-.3.1-.5.2-.1.1-.2.1-.3.2h-.1-.1c-.2.2-.5.1-.8.2-.1 0-.2.1-.2.1-.5.1-1 .2-1.4.3 0 0 0 0-.1 0-.2 0-.3 0-.4.1h-.1s0 0-.1 0c-.5.1-.9.2-1.4.3-.3.1-.7.1-1 .2s-.7.1-1 .2c-.5.1-1.1.2-1.6.4-.2.1-.5.2-.7.2-.1 0-.1 0-.2 0-.3.1-.6.2-.9.3-.4.1-.8.2-1.2.4-.1 0-.2.1-.2.1-.1 0-.2.1-.3.2h-.1s0 0-.1 0-.3.1-.4.1c-.6.2-1.2.3-1.7.5-.2.1-.4.1-.7.2-.1 0-.1 0-.2.1-.6.2-1.3.4-1.9.7-.2.1-.4.1-.6.2-.3.1-.6.2-1 .3-.1 0-.2.1-.2.1-.1 0-.1.1-.2.1-.3.1-.6.1-.9.4h-.1s0 0-.1 0c-.4.1-.7.3-1.1.4-.1 0-.2.1-.4.1-.5.1-.9.4-1.3.7-.2.1-.4.2-.5.3-1 .6-2.1 1.1-3.1 1.7 0 0 0 0-.1 0-.7.3-1.2.9-1.8 1.3-.2.2-.5.3-.7.5-.3-.1-.6.2-1 .4z"/><path d="m36.2 62.7c-.7.3-1.3.7-1.9 1.2-.1.1-.2.2-.3.3-.7.6-1.3 1.2-1.8 1.9-.6.7-1.2 1.5-1.7 2.3-.1.2-.3.5-.4.7-.2.4-.5.8-.7 1.2s-.5.7-.6 1.2c-.3 1.2-.7 2.4-1.1 3.6-.2.9-.4 1.8-.5 2.7-.1.2-.2.5-.1.7 0 0 0 .1-.1.1-.2 1.6-.3 3.2-.5 4.8-.1.7 0 1.4.1 2.1v.2.5c0 .5.1.9.1 1.4v.1c.1 0 .1.1 0 .2s.1.4.1.6v.2s0 .1.1.1c.1 0 .1.1 0 .2v.1c.2.6.3 1.2.5 1.8 0 .1.1.3.1.4l.3 1.2s0 .1.1.1c.1 0 .1.1 0 .1v.1c.2.4.3.9.4 1.3.2.3.1.9.6.8-.2 0-.3.2-.3.4.2.7.4 1.3.7 2 0 0 0 .1.1.1.2.4.5.9.6 1.4.5 1.1 1.1 2.3 1.8 3.3.9 1.8 2.1 3.3 3.2 4.9.4.6.9 1.1 1.4 1.6s1 1.1 1.6 1.5c0 0 .1 0 .1.1.4.4.8.8 1.3 1v.1.1c1.5 1 3 1.9 4.6 2.7.2.1.5.3.7.4.6.4 1.3.5 1.9.7 1.1.3 2.1.6 3.1.9.9.3 1.7.7 2.6 1 .2.1.4.2.6.3.1 0 .2.1.2.1.1 0 .3.1.4.1h.1c.2.1.4.2.7.3h.1c0-.1.1 0 .1 0v.1c.1 0 .3.1.4.1.2.1.5.2.7.3s.4.1.6.3c.2.1.4.2.6.1.1 0 .2 0 .3.1 0 0 .1.1.1.1.5.1 1.1.4 1.6.6.1 0 .2.1.3.1.2.1.4 0 .5.1h.9c.5.1.9.1 1.4.1.8.1 1.5.1 2.3.2 1.3.2 2.7.2 4 .2h.1s.1-.1.1 0h.1.1.1.8c.6.1 1.2-.2 1.7-.2 0-.1.1-.1.1 0 .2 0 .5 0 .3-.3 0 .1.1.1.1.1.2.1.2-.1.2-.3 0-.1 0-.2-.1-.3-.1 0-.1-.1-.2-.1s-.1 0-.2 0-.3 0-.4 0c.5 0 .9.2 1.2.5 0 0-.1 0-.1-.1-.1 0-.1.1-.1.2s.1.1.2.1c.6-.1 1.2-.2 1.8-.3.1 0 .2 0 .3-.1h.4s.1 0 .1-.1c0 0 .1-.1.1-.1.2.1.5-.1.7-.1h.1c.1 0 .1-.1.2-.1.3 0 .6-.1.9-.2.6-.1 1.3-.3 1.9-.4 0 0 .1 0 .1-.1 0 0 .1-.1.1-.1.3 0 .5-.1.8-.1.1 0 .2-.1.3-.1.6-.1 1.1-.3 1.6-.5.8-.3 1.7-.5 2.5-1 1.1-.7 2.1-1.4 3.2-2.1 0 0 0 0 0-.1 0-.1.1-.1.1-.1h.1c.5-.3 1-.6 1.4-1 0 0 .1-.1.1-.1s0 0 0-.1h.1c.1 0 .2-.1.2-.1 1.4-1.2 2.8-2.3 4-3.6.4-.4.9-.8 1.3-1.3 0 0 .1-.1.1-.1.4-.3.7-.7 1.1-1v-.1-.1c.3-.2.5-.4.7-.7.8-1.1 1.7-2.1 2.6-3.2.6-.9 1.2-1.8 1.8-2.7.6-.8 1.1-1.7 1.5-2.7.7-1.6 1.5-3.2 2-4.8.2-.6.4-1.1.6-1.7.3-.6.4-1.3.5-2 0-.1.1-.2.1-.3 0-.2.1-.4.1-.6v-.1c0-.2.1-.4.1-.5.3-.9.5-1.9.6-2.9 0-.3.1-.5.1-.8.1-.5.1-1.1.2-1.6 0-.4.2-.8.1-1.2 0-.2 0-.4 0-.6 0-.4-.1-.7-.1-1.1 0-.6 0-1.2-.1-1.8 0-.2 0-.3 0-.5 0-.1-.1-.2-.1-.4s-.1-.5-.1-.8c0-.2-.1-.3-.1-.5v-.1-.1s-.1-.1-.1-.1c.1-.3 0-.7-.1-1.1 0-.1 0-.1 0-.2 0-.3-.1-.6-.1-.8 0-.1-.1-.3-.1-.4 0 0 0 0 0-.1l-.1-.1v-.1s.1 0 .1-.1c-.3-.8-.5-1.6-.7-2.4-.1-.4-.2-.9-.4-1.3-.1-.3-.3-.7-.5-1.1-.3-.7-.6-1.4-.9-2.1-.5-1.1-1.1-2-1.6-3.1-.3-.5-.6-1.1-.9-1.6 0 0 0 0-.1-.1 0 0-.1-.1-.1-.1v-.1-.1c-.5-.6-.9-1.3-1.4-2-.3-.5-.8-.8-1.2-1.2 0 0-.1 0-.2 0 0 0 0 0-.1 0 0 0 0 0-.1 0v-.1-.1c-.2-.2-.5-.4-.7-.6 0 0-.1-.1-.1-.1-.5-.5-1-.9-1.5-1.4-.7-.6-1.3-1.1-2-1.7-.5-.5-1.2-.6-1.8-1-.5-.2-1-.5-1.5-.6-.1 0-.2-.1-.3-.1-.9-.3-1.8-.5-2.7-.7-.5-.1-1-.2-1.6-.4-.9-.2-1.8-.3-2.7-.3-.7 0-1.3 0-2 .1-1.7.2-3.3.4-5 .6-1.5.2-3 .5-4.4.7-2.8.2-5.5.5-8.3.7-.3 0-.6.2-.9.3-.9.4-1.7.7-2.6 1-2.9 1.1-5.7 2.2-8.6 3.4-2.7 1.1-5.4 2.2-8.1 3.3-.5.2-.9.4-1.4.5-1.4.4-2.7.8-4.1 1.2-.1 0-.2.1-.3.1-.2.1-.4.2-.6.3-.1 0-.2.1-.3.1.6.4.3.5 0 .6z"/></g></svg>