<svg xmlns="http://www.w3.org/2000/svg" viewBox="0 0 200 200" width="200" height="200" preserveAspectRatio="xMidYMid meet" style="width: 100%; height: 100%; transform: translate3d(0px, 0px, 0px); content-visibility: visible;"><defs><clipPath id="__lottie_element_29"><rect width="200" height="200" x="0" y="0"></rect></clipPath><clipPath id="__lottie_element_31"><path d="M0,0 L200,0 L200,200 L0,200z"></path></clipPath></defs><g clip-path="url(#__lottie_element_29)"><g clip-path="url(#__lottie_element_31)" transform="matrix(1,0,0,1,0,0)" opacity="1" style="display: block;"><g transform="matrix(7.800000190734863,0,0,7.800000190734863,100,100)" opacity="1" style="display: block;"><g opacity="1" transform="matrix(1,0,0,1,0,0)"><path stroke-linecap="round" stroke-linejoin="round" fill-opacity="0" stroke="rgb(20,70,37)" stroke-opacity="1" stroke-width="2" d=" M5.441999912261963,0.2370000034570694 C5.579999923706055,-0.024000000208616257 5.484000205993652,-0.3230000138282776 5.1519999504089355,-0.5299999713897705 C5.152001857757568,-0.5299989581108093 -5.152001857757568,-6.970001220703125 -5.152001857757568,-6.970001220703125 C-5.620011806488037,-7.262507438659668 -6,-7.0518999099731445 -6,-6.5 C-6,-6.5 -6,6.5 -6,6.5 C-6,6.5 -6,6.5 -6,6.5 C-6,7.0518999099731445 -5.620011806488037,7.262507438659668 -5.152001857757568,6.970001220703125 C-5.152001857757568,6.970001220703125 5.152001857757568,0.5299989581108093 5.152001857757568,0.5299989581108093 C5.288000106811523,0.4449999928474426 5.385000228881836,0.3440000116825104 5.441999912261963,0.2370000034570694"></path></g></g></g></g></svg>