<svg enable-background="new 0 0 144 98" viewBox="0 0 144 98" xmlns="http://www.w3.org/2000/svg"><g fill="#f1753f"><path d="m111.2 3.2c.1 0 .1-.1.2-.1.2-.1.4 0 .6 0s.3-.1.5 0h.6.8 1 .7.1.5.9.5c.3 0 .6.1.8.2.3.1.7.2 1 .3.5.2 1.1.4 1.6.5.2.1.3.1.5.2.8.2 1.6.5 2.5.8 1.7.5 3.3 1.1 4.9 1.7.3.1.7.2 1 .4.2.1.5.1.7.2.1 0 .1.1.2.1.5.2 1 .4 1.5.5.3.1.3.6.1.7 0 0 0 0-.1 0-.2.2-.2.3-.3.3-.5.4-1.1.9-1.6 1.3-.1.1-.2.1-.3.2-.6.6-1.3 1.1-2 1.6-.5.4-1 .8-1.6 1.2-.2.1-.3.2-.5.3-.1.1-.3.2-.4.3s-.3.2-.4.3c-.2.1-.4.2-.6.3-.1 0-.2.1-.3.1-.1.1-.3.1-.4.2-.5.2-.9.5-1.4.7-.2.1-.5.2-.7.3-.3.2-.6.3-.9.4-.1 0-.2.1-.3.1-.4.3-.8.4-1.3.6-.1 0-.2.1-.3.1-.7.4-1.4.7-2.1 1-.5.2-1 .5-1.4.7-.3.1-.6.3-.9.4-.6.3-1.3.6-1.9 1-.3.2-.7.3-1 .5-.2.1-.5.2-.7.3h-.1c-.2.1-.4.2-.5.3-.1 0-.1.1-.2.1 0 0-.1 0-.1.1-.1 0-.2.1-.4.2-.1 0-.2.1-.3.1 0 0-.1.1-.1.1-.1 0-.2.1-.2.1-.1 0-.2.1-.2.1-.1 0-.2.1-.3.1s-.1.1-.2.1c-.1.1-.3.1-.4.2-.1 0-.3.1-.4.2-.2.1-.5.2-.8.3-.2 0-.4.3-.5.2h-.1s-.1 0-.2 0c-.1-.2-.1-.3-.2-.5 0-.1-.2-.3-.2-.4s-.1-.1-.1-.2c-.1-.1-.1-.2-.1-.3-.1-.1-.1-.3-.2-.4s-.1-.2-.1-.4v-.1s0 0 0-.1c-.1-.2-.2-.6-.3-.8 0 0 0 0 0-.1s-.1-.1-.1-.2 0-.1 0-.1c-.1-.1-.1-.2-.1-.3s-.1-.2-.1-.2c0-.1-.1-.2-.1-.3-.1-.4-.3-.7-.5-1.1-.1-.2-.2-.4-.3-.7-.2-.3-.4-.7-.5-1.1 0-.1-.1-.2-.1-.2 0-.2 0-.3 0-.5 0-.1 0-.2 0-.3.1-.4 0-.9.1-1.3 0-.5 0-1.1.1-1.6 0 0 0 0 0-.1 0-.3 0-.6 0-.9 0-.1 0-.1 0-.2 0-.5 0-1 .2-1.4 0 0 0-.1.1-.1.1-.1.2-.3.2-.4s.1-.1.1-.2c.1-.5.3-.9.5-1.4.2-.4.7-.6 1-.9.2-.1.4-.3.6-.5.1-.1.2-.2.3-.2.2-.1.3-.2.5-.4.3-.3.6-.5.9-.7s.6-.3.9-.4c.1 0 .2-.1.4-.1.2-.1.4-.2.6-.2.1 0 .2-.1.4-.2h.2s.1 0 .1-.1c0 0 0-.1.1-.1h.2c.1 0 .2-.1.3-.1s.2 0 .3-.1.3-.1.4-.2c-.5.3-.4.3-.3.2z"/><path d="m112.1 22.5c.5-.2 1.1-.3 1.6-.3.9-.1 1.8-.2 2.6-.3.5 0 .9.1 1.3.1.7.1 1.4.2 2 .4 1.1.3 2.1.6 3.2 1 .6.2 1.1.4 1.7.6s1.2.6 1.7.9c.4.3.9.4 1.2.8.3.3.6.6.9.9.4.4.9.8 1.2 1.3.5.8 1.2 1.5 1.6 2.5.6 1.3 1.2 2.5 1.8 3.8.5 1.3.9 2.7 1.3 4 .2.4.2.8.3 1.2.3.9.6 1.9.7 2.8.2.5.3 1 .4 1.5s.3 1.1.4 1.6c.1.4.2.8.3 1.2-.1.1-.2.2-.2.3.1 0 .2 0 .2-.1 0 .1 0 .3.1.4.1.2.2.5.2.8.2 1.3.5 2.5.7 3.8 0 .5.1 1 .1 1.5.1 1.2-.1 2.3-.1 3.5 0 .3 0 .5-.1.8v1c-.1.6 0 1.3-.3 1.9 0 .2 0 .3-.1.4 0 .6-.1 1.2-.3 1.8 0 .1 0 .3-.1.4 0 .1 0 .2-.1.4 0 .7-.2 1.3-.3 2-.6 1.5-1.2 3-1.8 4.5-.1.2-.1.4-.3.5.1.1 0 .3 0 .5-.3.9-.7 1.8-1.1 2.7-.4.6-.6 1.3-1.1 1.8-.1.3-.3.7-.5 1-.1.2-.2.5-.4.7.1.1-.1.2-.2.4-.1.1-.1.4-.3.4v.2c-.2.3-.4.7-.6 1-.1.2-.1.4-.3.5-.2.3-.3.7-.6.9v.1h-.1c0 .3-.2.5-.3.7-.5.7-.9 1.5-1.6 2-.5.5-.9 1.1-1.4 1.5-.7.5-1.4 1.1-2.1 1.6-.7.4-1.3.9-2 1.1-.4.2-.8.3-1.3.5-.7.3-1.4.4-2.1.6-.4.1-.9.1-1.3.2-.8.1-1.6.3-2.4.3-1.5.2-3.1.3-4.6.4-1.1.1-2.2.2-3.3.2-1.3.2-2.6.6-3.9.8-.2.1-.4.1-.7.2-.5.2-.9.4-1.4.5-1.1.5-2.3.8-3.3 1.5-.6.4-1.2.7-1.8 1-1.2.3-2.3.8-3.5.9-2.6.4-5.4 0-7.7-1.3-1.1-.5-2-1.3-2.8-2.1-.6-.6-1.1-1.3-1.7-2-.1-.1-.2-.3-.3-.4-.4-.3-.7-.7-1-1.1-.2-.2-.4-.3-.5-.6-.2-.1-.4-.3-.5-.5-.6-.7-1.2-1.4-1.9-2.1-.1-.1-.2-.2-.2-.3-.4-.3-.7-.7-.9-1.2l-.1.1c-.7-.9-1.5-1.6-2.2-2.5-.4-.5-.8-.9-1.1-1.4-.4-.3-.7-.7-.9-1.1-.2-.3-.5-.5-.6-.8h-.1c-.2-.2-.4-.4-.4-.7 0-.2-.3-.1-.3-.2-.6-.9-1.1-1.9-1.7-2.9-.2-.4-.5-.7-.5-1.2-.4-.7-.6-1.5-.9-2.2-.1-.4-.4-.8-.4-1.3-.2-.2-.2-.5-.3-.7-.6-1.2-.8-2.5-1.1-3.8-.1-.7-.3-1.4-.4-2.1-.1-1.2-.4-2.3-.3-3.5-.1-1 0-1.9-.1-2.9 0-.7-.1-1.4 0-2.1-.1-.4-.1-.7-.1-1.1 0-.5 0-.9.1-1.4.4-2 .8-4.1 1.3-6.1.1-.5.3-.9.5-1.3.2-.5.5-.9.7-1.4.2-.3.3-.6.5-.9 1.1-1.3 2.3-2.6 3.4-3.9.2-.2.4-.4.6-.5 1.5-1 3-2.1 4.5-3.1 1.6-.9 3.2-1.7 4.9-2.4.7-.2 1.4-.5 2.1-.7.8-.2 1.6-.3 2.3-.3 2.4-.2 4.8-.3 7.2-.5.9-.2 1.7-.5 2.6-.6.4-.2.8-.3 1.3-.4 1.2-.4 2.5-.6 3.7-1.1 2-.8 4.1-1.6 6.1-2.5.1.1.1.2.1.3.1-.1.1-.3.2-.5.6-.2 1.1-.4 1.6-.7.3-.1.5-.4.8-.4.4-.4 1-.7 1.5-1 .5-.4 1.1-.4 1.7-.6.6.2 1.1-.1 1.7-.1z"/></g></svg>