<svg enable-background="new 0 0 145 112" viewBox="0 0 145 112" xmlns="http://www.w3.org/2000/svg"><g fill="#d4605c"><path d="m37.5 20.4c0-.1.1-.1 0 0 .2 0 .4-.1.5-.2h.1c.9-.5 1.7-1 2.6-1.5h.1.1c.3-.1.5-.3.8-.4.1-.1.2-.1.4-.1.3-.1.5-.3.8-.4h.1.1c.3-.1.5-.3.8-.4h.1.1c.1-.1.2-.1.3-.2.2-.1.4-.1.5-.2 0 0 .1 0 .1-.1.1-.1.2-.1.4-.1.1 0 .2-.1.3-.1.1-.1.3-.1.5-.1h.1c.1-.1.4-.1.6-.2h.1c.1 0 .4 0 .5-.1s.2 0 .3 0 .2 0 .3-.1h.1.1.1c.1 0 .2 0 .3-.1 0 0 .1-.1.1-.1h.3.1.1.1c.1 0 .1-.1.2-.1h.1.1c.1 0 .2-.1.2-.1h.1.1s.1 0 .1-.1h.1c.5 0 .9-.1 1.4-.1.2 0 .4 0 .6-.1h.1.2.2.1c.1 0 .2 0 .3-.1h.5.1.1c.2-.1.4 0 .6 0h.1 1.2.4.5.1.1c.9.1 1.8.1 2.7.2.4 0 .9.1 1.3.1h.1.1.1.1c.2-.1.3 0 .5.1h.3c.3 0 .6.1.9.2.4.1.8.2 1.3.3s1.1.2 1.6.4h.3c.1 0 .3 0 .4.1s.3.2.5.3c.1 0 .1 0 .2.1.1 0 .2.1.4.2.1 0 .2.1.4.1.1 0 .2.1.3.2.3.1.6.2.9.4h.1.1c.1.1.2.1.3.2h.1.1s0 .1.1.1h.1.1s0 .1.1.1c0 .1.2.1.2.1s.1.1.1.1c.1.1.2.1.3.2.3.2.6.3.8.6h.1.1s0 .1.1.1c0 .1.2.1.2.2.1.1.1.2.2.2s.1.1.2.1c0 .1.2.1.2.2 0 0 .1.1.1.2.1.1.2.1.2.2.1.1.2.1.3.2s.1.3.3.4c.1 0 .1.1.1.1.1.2.3.4.4.6.1.1.3.2.4.4.1.1.1.3.3.4.1 0 .2.2.2.3.1.2.3.3.4.4s.1.2.2.3h.1.1c.1.2.2.4.4.6h.1.1c.1.1.2.2.2.4.1.1.2.1.2.2.1.1.1.2.2.3h.1c.1 0 0 .3-.1.3-.4 0-.8.1-1.2 0-.1 0-.2 0-.3 0s-.3-.1-.4 0h-.1s0 0-.1 0c0 0 0 0-.1 0 0 0-.1 0-.2 0s-.1 0-.2 0-.3 0-.5.1c-.2 0-.3.1-.5.1-.1 0-.3 0-.4.1 0 0 0 0-.1 0-.1.1-.2 0-.3.1-.1 0-.2 0-.3 0s-.1.1-.2.1h-.1c-.1 0-.1 0-.2 0 0 0-.1 0-.1.1-.1.1-.3.1-.4.1s-.3 0-.4 0-.4 0-.5.1c0 0 0 0-.1 0s-.2 0-.2 0h-.1c-.1 0-.2 0-.4.1s-.4.1-.6.1c-.1 0-.3 0-.4 0s-.2 0-.4.1c-.1 0-.3.1-.4.1s-.3 0-.4 0-.4 0-.5.1-.2 0-.4 0-.3 0-.5.1c-.1 0-.1 0-.2.1-.1 0-.2 0-.3 0-.2 0-.4.1-.6.1-.1 0-.2.1-.2.1-.1 0-.2 0-.3 0s-.2 0-.3 0-.2.1-.4.1c-.1 0-.2 0-.2 0s-.1 0-.1.1h-.1s0 0-.1 0l-.1.1c-.1 0-.2 0-.3 0s-.2.1-.4.1c-.1 0-.2 0-.3 0 0 0-.1 0-.1.1h-.1s0 0-.1 0-.2.1-.2.1c-.2.1-.4.1-.5.1-.2 0-.5.1-.7.1-.1 0-.1 0-.2 0s-.2 0-.3 0c0 0-.1 0-.1.1 0 0 0 0-.1 0 0 0 0 0-.1 0 0 0-.1 0-.1.1-.1 0-.2 0-.3 0s-.3.1-.4.1-.2 0-.2 0-.1 0-.1.1c0 0 0 0-.1 0 0 0 0 0-.1 0-.2.1-.3 0-.5.1h-.1s0 0-.1 0-.2.1-.2.1 0 0-.1 0c0 0 0 0-.1 0-.3.2-.6 0-.8.2-.1 0-.2.1-.4.1s-.5.1-.6.2-.3 0-.4.1c-.1 0-.2.1-.3.1s-.3 0-.4.1c-.1.1-.3 0-.4.1-.1 0-.1 0-.2 0 0 0 0 0-.1 0-.2.1-.4.1-.6.2h-.1c-.2 0-.5.1-.7.2h-.1c-.2-.1-.6.1-.8.2-.1 0-.3.1-.4.1s-.3 0-.4.1c-.2.1-.5.2-.6.2s-.2 0-.3.1h-.1s0 0-.1 0h-.1c-.1 0-.2 0-.3 0s-.1.1-.2.1c-.1.1-.2 0-.3.1-.2.1-.4.1-.6.2-.2 0-.4 0-.5.1s-.3.1-.5.1h-.1c-.2 0-.4.1-.5.2-.1 0-.2 0-.3 0-.2 0-.4.2-.5.1-.1 0-.2 0-.3 0 0 0-.1 0-.2 0-.2 0-.3.1-.5.1-.1 0-.2 0-.2 0s-.1 0-.1.1h-.1s0 0-.1 0c0 0-.1 0-.1.1-.1 0-.2 0-.2 0s0 0-.1 0c-.1.1-.3.1-.4.1-.2 0-.4.1-.6.1-.1 0-.1 0-.2 0-.3.1-.6.1-1 .2-.1 0-.2 0-.3 0-.1.1-.4.1-.6.1-.2.1-.4.1-.7.1-.1 0-.2 0-.3.1-.2 0-.4.1-.6.1s-.3 0-.5.1c-.1 0-.2.1-.3.1s-.2 0-.2 0c-.1 0-.2 0-.3.1-.1.1-.3.1-.4.1s-.3 0-.4 0-.3 0-.4.1c-.1.1-.2 0-.3 0h-.1s0 0-.1 0c0 0 0 0-.1 0s-.2.1-.2.1 0 0-.1 0c0 0 0 0-.1 0 0 0 0 0-.1 0s-.1 0-.2 0-.2.1-.2.1c-.1 0-.1 0-.2 0s-.1 0-.2 0-.1.1-.2.1c-.1.1-.3.1-.4.1-.3.1-.7.1-1 .2s0 0-.1 0-.2 0-.3 0-.4.1-.5.1c-.1.1-.2 0-.3 0-.2 0-.4.1-.6.2h-.1-.1c-.1 0-.1.1-.2.1h-.1s0 0-.1 0c0 0-.1 0-.1.1-.1 0-.1 0-.2 0-.2 0-.5.1-.8.1-.2 0-.4 0-.5.1 0 0-.1 0-.1.1-.1.1-.2 0-.3 0-.2 0-.4.1-.6.1-.1 0-.2 0-.3 0-.3.1-.5.1-.8.2-.2 0-.4 0-.5.1s-.3.1-.5.1c-.2.1-.4.1-.7.1-.1 0-.2-.1-.1-.2 0-.1.1-.2.1-.3s0-.2 0-.3c0-.2.1-.5.2-.7s.2-.4.3-.6c.1-.1.1-.2.2-.3.1-.2.2-.4.2-.5.1-.2.2-.4.3-.6.1-.3.3-.5.5-.8s0 0 0-.1c.2-.1.2-.4.4-.5.1 0 .1-.1.2-.1.1-.1.1-.3.3-.4 0 0 0 0 0-.1 0 0 0 0 0-.1.1 0 .1-.1.2-.1 0 0 0 0 0-.1v-.1c.1 0 .1-.1.1-.2 0 0 .1 0 .1-.1.1-.1.2-.2.2-.3.2-.2.3-.4.5-.6 0 0 0 0 0-.1.2-.2.4-.4.7-.6.1-.1.2-.3.4-.4 0 0 .1 0 .1-.1.1-.1.1-.1.2-.2s.2-.2.3-.3h.1c.1-.1.2-.2.3-.3 0 0 0 0 0-.1s.1-.1.1-.2c.1 0 .2-.1.2-.1.1-.1.1-.2.2-.2.1-.1.1-.2.2-.2 0 0 .1-.1.1-.1.1-.1.2-.2.3-.3s.2-.1.3-.2c0 0 0 0 0-.1v-.1c.1-.1.3-.2.4-.2.1-.1.2-.2.3-.3s.3-.1.4-.2.2-.2.3-.3c.1 0 .2-.1.3-.1h.1c0 .1.2.2.2.1 0 0 .1-.1.1-.1.1-.1 0-.3-.1-.4v-.1s0 0 .1-.1c.2-.2.4-.3.6-.5.4-.2.7-.6 1.1-.8s.8-.6 1.2-.8c-.3-.1-.1-.2-.1-.3z"/><path d="m43.6 40c.5-.4 1-.6 1.5-.9 1.2-.6 2.3-1.3 3.5-1.9 1.6-.8 3.2-1.5 4.8-2.3 1.4-.6 2.8-1.1 4.2-1.7 3-1 5.9-2 8.9-2.9.4-.1.8-.1 1.2-.1.9-.1 1.7-.2 2.6-.2.8-.1 1.7.1 2.5.2 1 .1 1.9.4 2.8.5.4.1.8.2 1.2.4.2.1.3.1.5.2.6.2 1.3.1 1.8-.4.8-.8 1.7-1.6 2.5-2.4.9-.8 2.2-1.3 3.1-.5.8.6 1.6 1.4 2.4 2.1 1.2 1.1 2.3 2.2 3.5 3.3 1.4 1.2 2.4 2.8 3.3 4.4.4.7.8 1.5 1.2 2.2.1.3.3.6.4.9.4 2.7.8 5.3 1.1 8 .1.6.5 1 .5 1.6.5 2.8 1 5.6 1.4 8.4.1 1-.1 1.9-.2 2.8 0 .3-.2.5-.1.8 0 .6-.2 1.2-.3 1.9-.1.3-.1.6-.2.8v.1.1c-.3 1.3-.6 2.7-.9 4-.7 2.4-1.7 4.7-2.6 7-.3.7-.8 1.3-1.2 2-.6 1-1.3 1.9-1.9 2.9-.3.6-.9 1-1.3 1.5-.3.3-.5.6-.8.7v.1.1c-.4.4-.9.8-1.4 1.1-.8.6-1.5 1.2-2.3 1.7-2.2 1.3-4.4 2.5-6.6 3.7-2.9 1.3-5.8 2.5-8.7 3.8-1.2.5-2.4.9-3.5 1.4-.8.3-1.6.7-2.4.9-1.4.4-2.8.8-4.2 1.3-.3.1-.7.2-1.1.3-1.3.2-2.6.4-3.9.6-.6.1-1.3.2-1.9.3-.7 0-1.4.1-2.1.1-.6 0-1.1.1-1.7.1-.3 0-.7 0-1 0s-.7 0-1 0c-.1 0-.2-.1-.3 0s-.2 0-.3 0c-.4 0-.8-.1-1.3-.2-.1 0-.3 0-.4-.1-.8-.1-1.6-.2-2.4-.4-.9-.2-1.7-.5-2.6-.7-.5-.2-1-.3-1.4-.4-.3-.1-.6-.3-.9-.4-.8-.4-1.5-.8-2.2-1.2-1.3-1-2.7-1.9-3.8-3.1-.8-.8-1.6-1.7-2.4-2.5s-1.5-1.9-2.2-2.8c-.4-.5-.8-1-1.2-1.6-.2-.5-.5-1-.7-1.5-.3-.7-.6-1.5-.7-2.3-.4-1.8-.7-3.7-.8-5.6-.1-.5.1-1 .1-1.4s.1-.9.2-1.3c.7-2.6 1.2-5.3 2-7.9.4-1.5.9-3 1.4-4.5 0-.1.1-.2.1-.2.2-.6.5-1.2.8-1.8 0-.1.1-.2.1-.2.8-1.5 1.6-3 2.5-4.5.3-.5.7-.9 1-1.4.6-1.1 1.3-2.2 1.9-3.3.6-1.2 1.8-2.1 2.6-3.2.6-.6 1-1.2 1.7-1.7 1.2-1 2.3-2.1 3.6-2.9.6-.9 1.3-1.4 2-1.9z"/></g></svg>