<svg fill="none" height="24" viewBox="0 0 24 24" width="24" xmlns="http://www.w3.org/2000/svg"><path d="m19.9375 7.5094c-.5927.25598-1.2242.42566-1.8826.50804.6773-.39819 1.1943-1.02392 1.4373-1.77813-.6315.37073-1.3287.63259-2.0718.77873-.5997-.62867-1.4543-1.01804-2.3867-1.01804-1.8089 0-3.2652 1.44565-3.2652 3.2179 0 .255.0219.5002.0757.73362-2.71631-.13044-5.11988-1.41231-6.73455-3.36502-.2819.48156-.44725 1.03275-.44725 1.62612 0 1.11415.58272 2.10178 1.45131 2.67358-.52494-.0098-1.03992-.1599-1.47621-.3962v.0353c0 1.5633 1.13256 2.8619 2.61773 3.161-.26595.0716-.55582.1059-.85664.1059-.20918 0-.42035-.0118-.61857-.0549.42334 1.274 1.62463 2.2106 3.05303 2.241-1.11164.8563-2.52311 1.3721-4.05112 1.3721-.26795 0-.52494-.0117-.78193-.0441 1.44732.919 3.1626 1.4437 5.01234 1.4437 6.01246 0 9.29956-4.9038 9.29956-9.1545 0-.14221-.005-.27952-.012-.41585.6485-.45311 1.1933-1.01902 1.6376-1.67025z" fill="#9aa694"/></svg>