<svg fill="none" height="24" viewBox="0 0 24 24" width="24" xmlns="http://www.w3.org/2000/svg"><path d="m3 12c0 3.4153 2.14067 6.3313 5.15333 7.4787-.07333-.6247-.15133-1.6547.01667-2.3774.14467-.6213.934-3.9586.934-3.9586s-.238-.4767-.238-1.1827c0-1.1067.64133-1.9333 1.4407-1.9333.68 0 1.008.51 1.008 1.1213 0 .6833-.4354 1.7047-.66 2.652-.1874.7927.398 1.4393 1.1793 1.4393 1.4153 0 2.504-1.4926 2.504-3.6473 0-1.90733-1.3707-3.24-3.3273-3.24-2.26537 0-3.59537 1.6993-3.59537 3.456 0 .6847.26334 1.418.59267 1.8173.02808.0302.04792.0671.05761.1071.00969.0401.00891.0819-.00228.1216-.06066.252-.19533.7927-.22133.9033-.03533.1454-.11533.1767-.26667.106-.99466-.4626-1.616-1.9166-1.616-3.0846 0-2.5127 1.82467-4.81937 5.26137-4.81937 2.7626 0 4.91 1.96867 4.91 4.59937 0 2.7446-1.73 4.954-4.1327 4.954-.8073 0-1.5653-.42-1.8253-.9154 0 0-.39937 1.5214-.49603 1.8934-.188.7226-.70934 1.6373-1.03267 2.1566.74533.2294 1.536.3527 2.356.3527 4.418 0 8-3.582 8-8s-3.582-8-8-8-8 3.582-8 8z" fill="#9aa694"/></svg>