<svg fill="none" height="24" viewBox="0 0 24 24" width="24" xmlns="http://www.w3.org/2000/svg"><path clip-rule="evenodd" d="m5 6.24274c0-.32959.13093-.64569.36399-.87875s.54915-.36399.87875-.36399h12.38816c.1633-.00027.3251.03169.4761.09403s.2882.15385.4037.26928c.1156.11544.2072.25253.2698.40344.0625.1509.0946.31265.0945.47599v12.38816c.0002.1634-.0319.3252-.0943.4762-.0624.1509-.154.2881-.2695.4037-.1154.1155-.2526.2072-.4035.2697-.151.0625-.3127.0946-.4761.0945h-12.38886c-.16326 0-.32491-.0322-.47573-.0947s-.28785-.1541-.40326-.2695c-.11541-.1155-.20693-.2526-.26935-.4034-.06241-.1509-.09449-.3126-.0944-.4758zm5.8878 4.42866h2.0142v1.0115c.2907-.5814 1.0345-1.1048 2.1521-1.1048 2.1427 0 2.6505 1.1582 2.6505 3.2833v3.9365h-2.1684v-3.4523c0-1.2103-.2907-1.8932-1.029-1.8932-1.0244 0-1.4504.7363-1.4504 1.8932v3.4523h-2.169zm-3.71875 7.0339h2.16904v-7.1272h-2.16904v7.1265zm2.47939-9.45173c.00409.18572-.02896.37038-.0972.54315-.06825.17277-.17032.33017-.30021.46296-.1299.13279-.28502.2383-.45625.31033-.17122.07203-.35511.10914-.54087.10914s-.36966-.03711-.54088-.10914c-.17123-.07203-.32634-.17754-.45624-.31033s-.23197-.29019-.30021-.46296c-.06825-.17277-.10129-.35743-.0972-.54315.00802-.36454.15847-.71144.41912-.96641.26065-.25498.61078-.39775.97541-.39775.36462 0 .71475.14277.9754.39775.26065.25497.4111.60187.41913.96641z" fill="#9aa694" fill-rule="evenodd"/></svg>