<svg fill="none" height="24" viewBox="0 0 24 24" width="24" xmlns="http://www.w3.org/2000/svg"><path d="m9.95893 12.4375c0-1.3691 1.10967-2.47937 2.47887-2.47937s2.4795 1.11027 2.4795 2.47937-1.1103 2.4794-2.4795 2.4794-2.47887-1.1103-2.47887-2.4794zm-1.34036 0c0 2.1093 1.70983 3.8191 3.81923 3.8191s3.8192-1.7098 3.8192-3.8191-1.7098-3.81908-3.8192-3.81908-3.81923 1.70978-3.81923 3.81908zm6.89713-3.97047c0 .49263.3995.89274.8927.89274.4927 0 .8928-.40011.8928-.89274s-.3995-.89214-.8928-.89214c-.4932 0-.8927.39951-.8927.89214zm-6.08306 10.02437c-.72515-.033-1.11927-.1538-1.38122-.2559-.34726-.1352-.59478-.2962-.85553-.5563-.26014-.2601-.42175-.5077-.55633-.8549-.10213-.2619-.22289-.656-.25594-1.3812-.03604-.784-.04325-1.0195-.04325-3.0056s.00781-2.221.04325-3.00564c.03305-.72513.15441-1.11863.25594-1.38116.13518-.34725.29619-.59476.55633-.8555.26015-.26013.50767-.42173.85553-.55631.26195-.10213.65607-.22288 1.38122-.25592.78406-.03605 1.01956-.04326 3.00516-.04326 1.9862 0 2.2211.00781 3.0058.04326.7251.03304 1.1186.15439 1.3812.25592.3472.13458.5948.29618.8555.55631.2602.26014.4212.50825.5563.8555.1022.26193.2229.65603.256 1.38116.036.78464.0432 1.01954.0432 3.00564 0 1.9855-.0072 2.221-.0432 3.0056-.0331.7252-.1544 1.1193-.256 1.3812-.1351.3472-.2961.5948-.5563.8549-.2601.2601-.5083.4211-.8555.5563-.262.1021-.6561.2229-1.3812.2559-.7841.0361-1.0196.0433-3.0058.0433-1.9856 0-2.2211-.0072-3.00516-.0433zm-.06128-13.44634c-.79184.03604-1.33256.1616-1.80538.34544-.48904.18984-.90359.44457-1.31753.85789-.41335.41333-.66809.82786-.85794 1.31749-.18384.4728-.3094 1.01349-.34545 1.8053-.03665.79302-.04506 1.04652-.04506 3.06632s.00841 2.2733.04506 3.0663c.03605.7918.16161 1.3325.34545 1.8053.18985.489.44399.9042.85794 1.3175.41334.4133.82789.6675 1.31753.8579.47343.1838 1.01354.3094 1.80538.3454.79364.0361 1.04654.0451 3.06644.0451 2.0205 0 2.2734-.0084 3.0664-.0451.7919-.036 1.3326-.1616 1.8054-.3454.4891-.1904.9036-.4446 1.3176-.8579.4133-.4133.6674-.8285.8579-1.3175.1838-.4728.31-1.0135.3454-1.8053.0361-.7936.0445-1.0465.0445-3.0663s-.0084-2.2733-.0445-3.06632c-.036-.79181-.1616-1.3325-.3454-1.8053-.1905-.48903-.4446-.90356-.8579-1.31749-.4134-.41332-.8285-.66805-1.317-.85789-.4734-.18384-1.0141-.31-1.8054-.34544-.793-.03605-1.0465-.04506-3.0664-.04506-2.0205 0-2.2734.00841-3.06704.04506z" fill="#9aa694"/></svg>