<svg fill="none" height="24" viewBox="0 0 24 24" width="24" xmlns="http://www.w3.org/2000/svg"><path d="m20.7245 8.00048c-.1082-.38606-.3192-.73558-.6103-1.01141-.2993-.2843-.6662-.48767-1.0661-.59091-1.4963-.39421-7.4912-.39421-7.4912-.39421-2.49917-.02842-4.99776.09658-7.48162.3743-.39983.11086-.76605.31878-1.06608.60525-.2948.28351-.50834.63312-.61989 1.01618-.26795 1.44284-.39815 2.90782-.38882 4.37532-.00956 1.4661.12031 2.9307.38882 4.3753.10916.3815.3219.7295.6175 1.0106s.66371.4842 1.06847.5917c1.51624.3934 7.48162.3934 7.48162.3934 2.5024.0285 5.0042-.0965 7.4912-.3743.3999-.1032.7668-.3066 1.0661-.5909.291-.2757.5017-.6253.6095-1.0114.275-1.4423.4087-2.9079.3992-4.3761.0207-1.4744-.1128-2.94694-.3984-4.39362zm-11.07344 7.10132v-5.45282l4.98774 2.72682z" fill="#9aa694"/></svg>