<svg fill="none" height="14" viewBox="0 0 1480 14" width="1480" xmlns="http://www.w3.org/2000/svg"><g fill="#154726" opacity=".3"><path d="m9.67424 7.84366c.61746-.39295.61746-1.29437.00001-1.68732l-8.13737-5.178328c-.665728-.423643-1.53687996.054568-1.53687993.843658l.00000041 10.35663c.00000003.7891.87115052 1.2673 1.53687952.8437z"/><circle r="1.5" transform="matrix(1 0 0 -1 29.792 7)"/><circle r="1.5" transform="matrix(1 0 0 -1 50.083 7)"/><circle r="1.5" transform="matrix(1 0 0 -1 70.375 7)"/><circle r="1.5" transform="matrix(1 0 0 -1 90.667 7)"/><circle r="1.5" transform="matrix(1 0 0 -1 110.958 7)"/><circle r="1.5" transform="matrix(1 0 0 -1 131.25 7)"/><circle r="1.5" transform="matrix(1 0 0 -1 151.542 7)"/><circle r="1.5" transform="matrix(1 0 0 -1 171.833 7)"/><circle r="1.5" transform="matrix(1 0 0 -1 192.125 7)"/><circle r="1.5" transform="matrix(1 0 0 -1 212.417 7)"/><circle r="1.5" transform="matrix(1 0 0 -1 232.708 7)"/><circle r="1.5" transform="matrix(1 0 0 -1 253 7)"/><circle r="1.5" transform="matrix(1 0 0 -1 273.292 7)"/><circle r="1.5" transform="matrix(1 0 0 -1 293.583 7)"/><circle r="1.5" transform="matrix(1 0 0 -1 313.875 7)"/><circle r="1.5" transform="matrix(1 0 0 -1 334.167 7)"/><circle r="1.5" transform="matrix(1 0 0 -1 354.458 7)"/><circle r="1.5" transform="matrix(1 0 0 -1 374.75 7)"/><circle r="1.5" transform="matrix(1 0 0 -1 395.042 7)"/><circle r="1.5" transform="matrix(1 0 0 -1 415.333 7)"/><circle r="1.5" transform="matrix(1 0 0 -1 435.625 7)"/><circle r="1.5" transform="matrix(1 0 0 -1 455.917 7)"/><circle r="1.5" transform="matrix(1 0 0 -1 476.208 7)"/><circle r="1.5" transform="matrix(1 0 0 -1 496.5 7)"/><circle r="1.5" transform="matrix(1 0 0 -1 516.792 7)"/><circle r="1.5" transform="matrix(1 0 0 -1 537.083 7)"/><circle r="1.5" transform="matrix(1 0 0 -1 557.375 7)"/><circle r="1.5" transform="matrix(1 0 0 -1 577.667 7)"/><circle r="1.5" transform="matrix(1 0 0 -1 597.958 7)"/><circle r="1.5" transform="matrix(1 0 0 -1 618.25 7)"/><circle r="1.5" transform="matrix(1 0 0 -1 638.542 7)"/><circle r="1.5" transform="matrix(1 0 0 -1 658.833 7)"/><circle r="1.5" transform="matrix(1 0 0 -1 679.125 7)"/><circle r="1.5" transform="matrix(1 0 0 -1 699.417 7)"/><circle r="1.5" transform="matrix(1 0 0 -1 719.708 7)"/><circle r="1.5" transform="matrix(1 0 0 -1 740 7)"/><circle r="1.5" transform="matrix(1 0 0 -1 760.292 7)"/><circle r="1.5" transform="matrix(1 0 0 -1 780.584 7)"/><circle r="1.5" transform="matrix(1 0 0 -1 800.875 7)"/><circle r="1.5" transform="matrix(1 0 0 -1 821.167 7)"/><circle r="1.5" transform="matrix(1 0 0 -1 841.459 7)"/><circle r="1.5" transform="matrix(1 0 0 -1 861.75 7)"/><circle r="1.5" transform="matrix(1 0 0 -1 882.042 7)"/><circle r="1.5" transform="matrix(1 0 0 -1 902.334 7)"/><circle r="1.5" transform="matrix(1 0 0 -1 922.625 7)"/><circle r="1.5" transform="matrix(1 0 0 -1 942.917 7)"/><circle r="1.5" transform="matrix(1 0 0 -1 963.209 7)"/><circle r="1.5" transform="matrix(1 0 0 -1 983.5 7)"/><circle r="1.5" transform="matrix(1 0 0 -1 1003.79 7)"/><circle r="1.5" transform="matrix(1 0 0 -1 1024.08 7)"/><circle r="1.5" transform="matrix(1 0 0 -1 1044.38 7)"/><circle r="1.5" transform="matrix(1 0 0 -1 1064.67 7)"/><circle r="1.5" transform="matrix(1 0 0 -1 1084.96 7)"/><circle r="1.5" transform="matrix(1 0 0 -1 1105.25 7)"/><circle r="1.5" transform="matrix(1 0 0 -1 1125.54 7)"/><circle r="1.5" transform="matrix(1 0 0 -1 1145.83 7)"/><circle r="1.5" transform="matrix(1 0 0 -1 1166.12 7)"/><circle r="1.5" transform="matrix(1 0 0 -1 1186.42 7)"/><circle r="1.5" transform="matrix(1 0 0 -1 1206.71 7)"/><circle r="1.5" transform="matrix(1 0 0 -1 1227 7)"/><circle r="1.5" transform="matrix(1 0 0 -1 1247.29 7)"/><circle r="1.5" transform="matrix(1 0 0 -1 1267.58 7)"/><circle r="1.5" transform="matrix(1 0 0 -1 1287.88 7)"/><circle r="1.5" transform="matrix(1 0 0 -1 1308.17 7)"/><circle r="1.5" transform="matrix(1 0 0 -1 1328.46 7)"/><circle r="1.5" transform="matrix(1 0 0 -1 1348.75 7)"/><circle r="1.5" transform="matrix(1 0 0 -1 1369.04 7)"/><circle r="1.5" transform="matrix(1 0 0 -1 1389.33 7)"/><circle r="1.5" transform="matrix(1 0 0 -1 1409.62 7)"/><circle r="1.5" transform="matrix(1 0 0 -1 1429.92 7)"/><circle r="1.5" transform="matrix(1 0 0 -1 1450.21 7)"/><path d="m1470.33 7.84366c-.62-.39295-.62-1.29437 0-1.68732l8.13-5.178328c.67-.423643 1.54.054568 1.54.843658v10.35663c0 .7891-.87 1.2673-1.54.8437z"/></g></svg>