<svg fill="none" height="9" viewBox="0 0 335 9" width="335" xmlns="http://www.w3.org/2000/svg"><g fill="#154726" opacity=".4"><path d="m330.822 3.89734c-.421.33719-.421.97824 0 1.31543l2.81 2.24752c.551.4412 1.368.04855 1.368-.65771v-4.49505c0-.70626-.817-1.09891-1.368-.65772z"/><circle r="1.26342" transform="matrix(-1 -.00000003 -.00000003 1 323.465 4.55505)"/><circle r="1.26342" transform="matrix(-1 -.00000003 -.00000003 1 315.667 4.55505)"/><circle r="1.26342" transform="matrix(-1 -.00000003 -.00000003 1 307.869 4.55505)"/><circle r="1.26342" transform="matrix(-1 -.00000003 -.00000003 1 300.07 4.55505)"/><circle r="1.26342" transform="matrix(-1 -.00000003 -.00000003 1 292.272 4.55505)"/><circle r="1.26342" transform="matrix(-1 -.00000003 -.00000003 1 284.474 4.55505)"/><circle r="1.26342" transform="matrix(-1 -.00000003 -.00000003 1 276.676 4.55505)"/><circle r="1.26342" transform="matrix(-1 -.00000003 -.00000003 1 268.877 4.55505)"/><circle r="1.26342" transform="matrix(-1 -.00000003 -.00000003 1 261.079 4.55505)"/><circle r="1.26342" transform="matrix(-1 -.00000003 -.00000003 1 253.281 4.55505)"/><circle r="1.26342" transform="matrix(-1 -.00000003 -.00000003 1 245.483 4.55505)"/><circle r="1.26342" transform="matrix(-1 -.00000003 -.00000003 1 237.684 4.55505)"/><circle r="1.26342" transform="matrix(-1 -.00000003 -.00000003 1 229.886 4.55505)"/><circle r="1.26342" transform="matrix(-1 -.00000003 -.00000003 1 222.088 4.55505)"/><circle r="1.26342" transform="matrix(-1 -.00000003 -.00000003 1 214.29 4.55505)"/><circle r="1.26342" transform="matrix(-1 -.00000003 -.00000003 1 206.491 4.55505)"/><circle r="1.26342" transform="matrix(-1 -.00000003 -.00000003 1 198.693 4.55505)"/><circle r="1.26342" transform="matrix(-1 -.00000003 -.00000003 1 190.895 4.55505)"/><circle r="1.26342" transform="matrix(-1 -.00000003 -.00000003 1 183.097 4.55505)"/><circle r="1.26342" transform="matrix(-1 -.00000003 -.00000003 1 175.298 4.55505)"/><circle r="1.26342" transform="matrix(-1 -.00000003 -.00000003 1 167.5 4.55505)"/><circle r="1.26342" transform="matrix(-1 -.00000003 -.00000003 1 159.702 4.55505)"/><circle r="1.26342" transform="matrix(-1 -.00000003 -.00000003 1 151.903 4.55505)"/><circle r="1.26342" transform="matrix(-1 -.00000003 -.00000003 1 144.105 4.55505)"/><circle r="1.26342" transform="matrix(-1 -.00000003 -.00000003 1 136.307 4.55505)"/><circle r="1.26342" transform="matrix(-1 -.00000003 -.00000003 1 128.509 4.55505)"/><circle r="1.26342" transform="matrix(-1 -.00000003 -.00000003 1 120.71 4.55505)"/><circle r="1.26342" transform="matrix(-1 -.00000003 -.00000003 1 112.912 4.55505)"/><circle r="1.26342" transform="matrix(-1 -.00000003 -.00000003 1 105.114 4.55505)"/><circle r="1.26342" transform="matrix(-1 -.00000003 -.00000003 1 97.3157 4.55505)"/><circle r="1.26342" transform="matrix(-1 -.00000003 -.00000003 1 89.5173 4.55505)"/><circle r="1.26342" transform="matrix(-1 -.00000003 -.00000003 1 81.7191 4.55505)"/><circle r="1.26342" transform="matrix(-1 -.00000003 -.00000003 1 73.9208 4.55505)"/><circle r="1.26342" transform="matrix(-1 -.00000003 -.00000003 1 66.1226 4.55505)"/><circle r="1.26342" transform="matrix(-1 -.00000003 -.00000003 1 58.3243 4.55505)"/><circle r="1.26342" transform="matrix(-1 -.00000003 -.00000003 1 50.5261 4.55505)"/><circle r="1.26342" transform="matrix(-1 -.00000003 -.00000003 1 42.7278 4.55505)"/><circle r="1.26342" transform="matrix(-1 -.00000003 -.00000003 1 34.9296 4.55505)"/><circle r="1.26342" transform="matrix(-1 -.00000003 -.00000003 1 27.1314 4.55505)"/><circle r="1.26342" transform="matrix(-1 -.00000003 -.00000003 1 19.3331 4.55505)"/><circle r="1.26342" transform="matrix(-1 -.00000003 -.00000003 1 11.5348 4.55505)"/><path d="m4.17786 3.89734c.42148.33719.42148.97824 0 1.31543l-2.80941 2.24752c-.551494.4412-1.36845019.04855-1.36845014-.65771l.00000028-4.49505c.00000005-.70626.81695586-1.09891 1.36844986-.65772z"/></g></svg>