<?xml version="1.0" encoding="utf-8"?>
<!-- Generator: Adobe Illustrator 27.0.0, SVG Export Plug-In . SVG Version: 6.00 Build 0)  -->
<svg version="1.1" id="Layer_1" xmlns="http://www.w3.org/2000/svg" xmlns:xlink="http://www.w3.org/1999/xlink" x="0px" y="0px"
	 viewBox="0 0 641 638" style="enable-background:new 0 0 641 638;" xml:space="preserve">
<style type="text/css">
	.st0{fill:#FFD550;}
</style>
<g>
	<path class="st0" d="M144.4,41.7c-7.4-4.2-15.7-6.7-23.6-10c-1.1-0.4-2.2-0.9-3.2-1.3c-3.1-1.4-6.6-2-9.8-3.3
		c-4.6-1.9-9.2-3.6-14.1-4.4c-0.2,0-0.3,0-0.4,0.2c-0.1,0.2-0.4,0.2-0.6,0.2c-1.5-0.7-3.2-1.2-4.9-1.4c-0.7-0.1-1.3-0.1-1.9-0.3
		c-2.7-0.8-5.5-1.3-8.4-1.7c-0.2,0-0.4-0.1-0.6-0.1c-1.2-0.4-2.4-0.7-3.6-1.1c-0.2-0.1-0.4,0.1-0.4,0.3c0,0.2-0.2,0.3-0.4,0.2
		c-1.8-0.8-3.7-1.5-5.7-1.5c-0.3,0-0.7,0-1-0.1c0,0-0.1,0-0.1,0c-2-0.7-4.5-0.9-6.6-1.1c-1.6-0.1-3.2,0-4.8-0.2
		c-0.2,0-0.3,0.1-0.4,0.2c-0.1,0.2-0.3,0.3-0.5,0.2c-1-0.3-2.1-0.5-3.1-0.5c-1.1,0-2.2-0.1-3.3-0.1c-1.4,0-2.9,0.1-4.3-0.1
		c-0.5-0.1-1-0.1-1.6-0.1c-2.5,0-5.1-0.2-7.6-0.2c-1.6-0.1-3.3-0.4-4.9-0.1c-0.4,0.1-0.8,0.1-1.2,0c-0.8-0.3-1.8,0.2-2.7,0.2
		c-0.7,0-1.5-0.3-2.2-0.4c-0.2,0-0.5,0-0.7,0c-1.4-0.2-2.8-0.3-4.1-0.5c-0.2,0-0.4,0.2-0.4,0.4c0,0.3-0.3,0.5-0.5,0.4
		c-3-1.4-6.5-0.5-9.7-0.5c-4.6,0.5-9.3,0.5-14,0.9c-5,0.3-10.2,0.3-15.1,1.3c-0.2,0-0.4,0-0.6-0.1c-0.2-0.1-0.4-0.2-0.6-0.4
		c-0.2-0.2-0.6,0-0.6,0.3c0,0.3-0.4,0.5-0.7,0.3c-1.3-0.6-2.8,0-4.2,0.1c-0.6,0.1-1.7,0.3-2.3,0.4c-0.1,0-0.2,0-0.3,0
		c-1.9,0.3-3.2,2.2-2.6,4c-1-4.9-4.7-2.4-7.5-2.1c-1.5,0.4-3.4,0.1-4.7,1.2c-0.1,0.1-0.3,0.2-0.5,0.1l-0.4-0.1c-0.1,0-0.2,0-0.2,0.1
		c0,0.2-0.5,0.3-0.7,0.2c-0.8-0.6-2.2,0.2-3.2,0.3c0,0-0.1,0-0.1,0c-0.2,0.1-0.5,0.1-0.7,0.2c-1.8,0.3-4.1,0.8-5.9,0.9
		c-0.9,0-1.7,0.1-2.6,0.2c-0.2,0-0.4,0.2-0.4,0.4c0,0.3-0.3,0.5-0.5,0.4c-2.8-0.7-5.6,0.2-8.4,0.4c-0.5,0-0.8,0.7-0.4,1
		c0.1,0.1,0.1,0.2,0.1,0.3c0.6,4,2.8,7.6,3.5,11.6c0,0.2,0.3,0.4,0.5,0.4c0.4-0.1,0.7,0.5,0.4,0.7l-0.1,0.1
		c-0.3,0.2-0.1,0.7,0.2,0.7c0.3,0,0.5,0.3,0.3,0.6l0,0.1c-0.1,0.2,0,0.5,0.2,0.6l0.1,0c0.2,0.1,0.3,0.4,0.2,0.6l0,0.1
		c-0.1,0.2,0,0.5,0.3,0.5c0.3,0,0.4,0.3,0.3,0.5c-0.3,1.1,0.1,2.3,0.8,3.3c0.7,1,1.2,2.3,1.5,3.5c0.4,1.7,1.6,3.3,2.3,4.9
		c0.3,0.6,0.4,1.2,0.6,1.8c0.4,1.6,1.2,3.2,2,4.6c0.4,0.7,0.7,1.4,0.9,2.1c0.1,0.7,0.4,1.3,0.7,1.9c1.9,3.5,2.4,7.7,4.9,10.9
		c0.1,0.1,0.1,0.3,0.1,0.5c0,0.1,0,0.3,0.1,0.4c0.7,1.1,1.5,2.2,2.3,3.3c0.1,0.1,0.2,0.3,0.2,0.5c0,0.2,0.1,0.4,0.2,0.5
		c0.8,0.8,1.5,1.7,2.3,2.5c4.4,4.7,9,9.2,13.5,14c0.8,0.7,1.6,1.3,2.4,1.9c0.2,0.1,0.3,0.3,0.2,0.5c0,0.2,0,0.4,0.2,0.5
		c2.2,1.9,4.2,4.1,6.1,6.3c0.8,0.7,1.7,1.3,2.7,1.7c0.2,0.1,0.2,0.3,0.1,0.4c-0.1,0.1,0,0.3,0.1,0.4c2.3,1.9,3.6,5.1,6.4,6.1
		c0.3,0.1,0.3,0.4,0.2,0.6c-0.1,0.1-0.1,0.4,0,0.5c1.4,1.3,2.7,2.7,4.2,3.9c0.5,0.4,0.9,0.8,1.2,1.2c0.3,0.4,0.6,0.9,0.8,1.1
		c0.1,0.1,0.2,0.2,0.3,0.3c2.2,2.3,4.4,4.8,6.8,6.8c0.5,0.4,0.9,0.8,1.4,1.2c0.4,0.4,0.8,0.8,1.2,1.2c1.8,2.3,3.7,4.9,6.4,6.1
		c0.2,0.1,0.4,0.4,0.2,0.6c-0.1,0.2-0.1,0.4,0.1,0.5c1.2,1.1,2.3,2.4,3.9,2.8c0.3,0.1,0.5,0.4,0.4,0.7c-0.1,0.3,0.1,0.5,0.3,0.6
		c0.6,0.3,1.2,0.5,1.8,0.8c0.7,0.3,1.2,0.9,1.7,1.5c0.9,1,2.3,1.4,3.5,1.8c0.2,0.1,0.3,0.3,0.2,0.5c-0.1,0.2,0,0.4,0.2,0.4
		c0.9,0.4,1.9,0.9,2.8,1.3c0.3,0.1,0.6,0,0.7-0.3c0.2-0.4,0.8-0.4,0.9,0.1l0.1,0.5c0,0.2,0.2,0.3,0.3,0.4c5.7,2.9,11.5,5.8,17.4,8.5
		c3.7,1.7,7.2,4.2,11.1,5.4c1.5,0.5,3,0.8,4.4,1.2c4.1,1.4,8.3,2.4,12.6,3.5c1.7,0.4,3.4,1,5,1.5c4.2,1.4,8.6,2.2,12.9,3.7
		c4.5,1.3,9,2.4,13.4,3.9c0.2,0.1,0.4,0,0.5-0.2c0.2-0.5,1.3-0.4,1.7-0.1c1.1,1,3,1.2,4.5,1.5c13.1,2.3,26.1,5.4,39.3,7.4
		c0.1,0,0.3,0.1,0.4,0.1c3,0.9,6.2,1.6,9.3,1.9c2.7,0.3,5.3,0.8,8,1.1c5,1,10,1.4,15.1,2.1c1.1,0.2,2.3,0.5,3.4,0.8
		c0.2,0,0.3-0.1,0.3-0.2c0-0.3,0.4-0.4,0.6-0.2c1,0.9,2.5,0.8,3.8,0.9c0.1,0,0.2,0,0.3,0c0.9,0.2,1.9,0.5,2.8,0.7
		c0.2,0,0.4-0.1,0.4-0.2c0.1-0.2,0.3-0.3,0.5-0.2c1.1,0.5,2.3,0.9,3.5,0.9c0.4,0,0.9,0,1.3,0.1c1.1,0.2,2.1,0.5,3.2,0.6
		c1.4,0.2,2.7,0.4,4.1,0.5c1.3,0.3,2.7,0.5,4,0.6c6.1,1,12.2,1.7,18.3,2.8c0.2,0,0.4-0.1,0.4-0.3c0-0.3,0.3-0.4,0.5-0.3
		c1.3,0.8,2.7,1.1,4.2,1.1c0.3,0,0.7,0.1,1,0.2c5.1,1.9,10.2,3.8,15.5,5.1c2.1,0.6,4.1,1.6,6.1,2.4c2.8,1.1,5.8,1.7,8.6,2.7
		c7.7,2.7,15.5,5,23.2,7.6c3.5,1.1,7.1,1.8,10.5,3.2c1.8,0.7,3.6,1.5,5.5,1.7c0.3,0,0.6,0.1,0.8,0.1c1.2,0.3,2.4,0.7,3.6,1.1
		c0.2,0.1,0.4-0.1,0.4-0.3c0.1-0.3,0.4-0.4,0.6-0.2c1.4,0.9,3.1,1.2,4.7,1.5c0.2,0,0.3,0,0.5,0.1c1.6,0.1,3.1,0.6,4.6,1.1
		c0.2,0.1,0.4,0,0.5-0.2c0.1-0.2,0.4-0.3,0.6-0.2c1.3,0.6,2.7,1,4.1,1.3c0.4,0.1,0.8,0.1,1.2,0.1c0.4,0,0.7,0.1,1.1,0.1
		c1.6,0.3,3.2,0.9,4.8,0.9c1,0,2.1-0.1,3.1-0.1c1.9,0,3.8-0.1,5.7-0.2c0.6,0,1.2-0.2,1.8-0.3c2.6-0.5,5.5,0.4,7.9-0.2
		c0.8-0.2,0.8-1.2,0.1-1.6c-0.1-0.1-0.2-0.2-0.3-0.3c-0.4-0.5-0.8-0.9-1.2-1.3c-0.5-0.4-1-0.8-1.5-1.3c-1-1.1-2.1-2-3.2-3
		c-0.8-0.6-1.6-1.2-2.5-1.8c-0.2-0.1-0.3-0.3-0.2-0.5c0.1-0.3-0.1-0.5-0.3-0.6c-2-0.8-2.8-3.3-4.4-4.8c-0.5-0.5-1-0.9-1.4-1.5
		c-2.5-3.2-5-6.3-7.8-9.1c-0.1-0.1-0.2-0.2-0.3-0.4c-0.7-1-1.5-2.1-2.7-2.6c-0.3-0.1-0.4-0.4-0.2-0.6c0.1-0.2,0.1-0.3,0-0.5
		c-2.6-2.9-4.9-6-7.6-8.8c-1.9-2.3-3.7-4.6-5.7-6.7c-1.9-2.1-3.6-4.5-5.5-6.8c-2.8-3.3-5.8-6.8-8.9-9.9c-1.5-1.3-2.9-2.8-4.2-4.3
		c-0.3-0.4-0.6-0.7-1-1.1c-1.8-1.7-3.5-3.5-5.3-5.2c-0.5-0.6-1.1-1.2-1.6-1.7c-1.4-1.4-2.8-2.8-4.2-4.2c-1-1.1-2.1-2.1-3.2-3.2
		c-0.7-0.8-1.5-1.3-2.5-1.6c-0.3-0.1-0.4-0.4-0.1-0.6c0.2-0.1,0.2-0.4,0-0.5c-0.9-0.9-1.7-1.7-2.6-2.6c0,0-0.1-0.1-0.1-0.1
		c-3.5-3.4-6.9-7.2-10.4-10.5c-1.4-1.3-2.6-2.8-4-4.2c-0.4-0.4-0.8-0.8-1.2-1.2c-4.1-3.8-8.1-7.7-12.3-11.4
		c-1.2-1.3-2.5-2.5-3.8-3.7c-2-2-4.1-3.8-6.1-5.8c-0.5-0.4-1.1-0.9-1.6-1.3c-0.4-0.3-0.8-0.7-1.2-1.1c-1.7-2-3.5-4.1-5.9-5
		c-0.2-0.1-0.3-0.4-0.2-0.6c0.1-0.2,0.1-0.4-0.1-0.5c-2.4-2.1-4.7-4.3-7-6.6c-0.8-0.7-1.5-1.4-2.3-2.1c-2.9-2.9-6.5-4.9-9.8-7.1
		c-1.3-1.1-2.7-1.9-4.2-2.8c-8-5.5-16-10.9-24.1-16.3c-0.9-0.7-1.9-1.4-3-1.9c-3.6-1.9-7.2-3.9-11-5.6c-1.3-0.6-2.6-1.1-3.8-1.7
		c-1.5-0.8-2.8-1.7-4.3-2.5C151.2,45,147.7,43.6,144.4,41.7L144.4,41.7z"/>
	<path class="st0" d="M-141.3,25c-1.9-1.4-3.9-2.6-6-3.6c-5.2-2.3-10.4-4.6-15.7-6.8c-1.8-0.8-3.7-1.4-5.7-1.8
		c-10.1-2.4-20.1-5.5-30.5-5.8c-2.2,0-4.4-0.4-6.5-0.6c-3.7-0.3-7.5-0.5-11.1-0.8c-3.6-0.3-7.2-1-10.8-0.2
		c-9.8,1.8-19.6,3.3-29.4,5.1c-6.9,2.1-14.1,3.2-21,5.7c-0.1,0-0.1,0-0.2,0c-1.8,0.3-4.3,0.2-5.5,1.6c-0.2,0.2-1,0.1-1-0.2
		c0-0.2-0.2-0.2-0.3-0.2c-11.9,3.9-23.5,8.8-35.3,13c-5.2,1.6-9.6,4.9-14,8.1c-0.4,0.3-0.9,0.5-1.3,0.8c-1.1,0.7-2.2,1.4-3.3,2.1
		c-3.2,1.9-6.2,4-9.3,6c-0.2,0.1-0.3,0.3-0.3,0.5c0,0.5-0.6,0.8-1,0.8c-1.4-0.1-2.5,1.7-3.6,2.5c-0.3,0.2-0.9,0.6-1.3,0.9
		c-0.2,0.2-0.4,0.4-0.3,0.7c0,0,0,0,0,0c0.1,0.5-0.4,0.9-0.9,0.8c-0.2,0-0.4,0-0.6,0.2c-3.7,3.2-7.5,6.4-11,9.8
		c-0.8,0.8-1.6,1.5-2.5,2.1c-2.6,2-5,4.4-7.4,6.7c-0.2,0.2-0.2,0.4-0.2,0.6c0,0.1,0.1,0.2,0.1,0.3c0.1,0.5-0.4,0.8-0.8,0.5
		c-0.2-0.2-0.5-0.1-0.7,0.1c-2.2,2.9-5.3,5-7.5,7.9c-1.6,2.3-5.8,3.5-3.3,7.5c-0.7-1.5-2.7-1.7-3.8-0.5c-3.6,4-7.9,7.3-10.9,11.8
		c-0.1,0.2-0.3,0.5-0.5,0.7c-2.2,3-4.5,6.5-6.9,9.4c-5.3,7.2-10.3,14.7-14.6,22.6c-0.8,1.5-1.7,2.9-2.6,4.2
		c-8.1,11.9-13.5,25.4-20.1,38.1c-2.7,4.9-4,10.4-5.8,15.6c-1.7,5.5-3.8,11-4.1,16.9c0,0.3,0,0.5-0.1,0.8c-0.9,4.1-2.7,8.5-1.8,12.7
		c0.1,0.3-0.3,0.6-0.6,0.4c-0.2-0.2-0.5,0-0.6,0.3c-1.1,14-1.8,28.2-0.4,42.2c0.2,2.2,0.1,4.5,0.1,6.8c-0.1,5.6,1.7,11,2.9,16.4
		c2.2,8.6,4.1,17.3,6.3,25.9c1.5,7.3,2.2,14.7,3.5,21.9c0.2,1.9,0.5,3.7,0.8,5.6c0.1,0.7,0.1,1.4,0.3,2c0.2,1,0.6,2.1,0.6,3.1
		c0,0.4,0.1,0.7,0.1,1c0.4,1.9,0.4,3.8,0.8,5.7c0,0.2,0.2,0.4,0.4,0.4c0.5,0.1,0.6,0.7,0.2,0.9c0,0-0.1,0-0.1,0.1
		c-0.2,0.1-0.3,0.3-0.3,0.6c0.2,1.1,0.5,2.1,0.7,3.2c0.2,2.1,0.3,4.3,0.8,6.3c0.4,1.8,0.7,3.7,0.7,5.5c0.1,1.6,0.4,3.2,1.2,4.5
		c0.4,0.7,0.6,1.7,0.3,2.4c-0.2,0.4-0.2,0.9-0.1,1.4c1.2,4.4,1.1,9.2,2.1,13.7c0.2,0.9,0.2,1.9,0.3,2.9c0.1,1.5,1.2,2.7,1.7,4
		c0.9,2.3,2.2,4.5,3.3,6.8c1.5,3.6,2.9,7.3,4.8,10.8c2.4,5.8,5.1,11.5,7.8,17.2c4.3,10.2,9.1,20.2,14.3,30c0.1,0.2,0.3,0.3,0.5,0.2
		l0.1,0c0.4-0.1,0.6,0.3,0.4,0.6c-0.2,0.2-0.1,0.6,0.2,0.6l0.1,0c0.3,0.1,0.4,0.4,0.3,0.6c-0.1,0.1-0.1,0.3,0,0.5
		c1.3,1.9,2.2,4.1,3.4,6.1c2,4.6,6.1,7.6,8.6,11.8c0.1,0.2,0.3,0.2,0.5,0.1c0,0,0,0,0,0c0.4-0.2,0.7,0.3,0.4,0.6
		c-0.1,0.1-0.1,0.3,0,0.4c0.9,1.4,2.1,3.4,3.1,1c-0.3,0.5-0.4,1-0.5,1.4c-0.1,1.6,1.7,1.1,3,0.1c0.7-0.5,1.6-0.8,1.6-1.7
		c0-0.6-0.2-1.2-0.3-1.7c-0.1-0.6-0.3-1.1-0.6-1.7c-0.4-0.9-0.9-1.9-1.3-2.8c0.1,0.2,0.2,0.3,0.3,0.5c2,3.2,2.4,6.6,1.5,10.2
		c0,0.1,0,0.1,0,0.2c0.1-0.4,0-0.8-0.1-1.1c-0.2-0.7-1.1-0.6-1.6-0.1c-0.5,0.5-0.6,1.4-0.1,1.9c3.2,4,6.3,8.1,9.6,12
		c0.4,0.4,1.1,1.2,1.5,1.6c0.7,0.9,1.3,1.8,1.9,2.8c0.1,0.2,0.4,0.3,0.6,0.2c0.4-0.1,0.8,0.2,0.8,0.6c0.2,1.9,2.3,3.2,3.5,4.8
		c0.3,0.3,0.5,0.6,0.9,0.8c0.5,0.3,0.9,0.7,1.1,1.2c1.1,2.2,2.9,3.9,4.5,5.8c3.6,4.2,7.2,8.4,10.8,12.5c0.2,0.2,0.4,0.4,0.7,0.4
		c0.4,0.1,0.8,0.4,1,0.8c0.9,2.1,2.5,3.8,4.2,5.3c0.7,0.6,1.3,1.4,1.8,2.1c2.8,3.8,6.4,7.1,10.1,10c5.1,5.2,10.5,10.2,16.4,14.4
		c9.2,5.2,18.4,10.5,27.6,15.6c0.2,0.1,0.4,0.1,0.6,0l0.2-0.1c0.4-0.1,0.8,0.1,0.8,0.5c0,0.2,0.1,0.4,0.3,0.5
		c4.1,2.4,8.4,4.8,12.8,6.5c0.4,0.1,0.8,0.1,1.1,0l0,0c0,0,0.1,0,0.1-0.1l0.2-0.1c0.1-0.1,0.3-0.1,0.5,0c0.1,0,0.2,0.1,0.3,0.2
		l0.1,0.2c0.1,0.1,0.1,0.2,0.2,0.3c0.1,0.1,0.3,0.3,0.4,0.4c0.5,0.5,1.1,0.9,1.7,1.2c13.7,5.7,27,12.3,41.3,16.4
		c4.8,1.8,9.6,3.7,14.6,5c4,1.7,8.2,2.9,12.3,4.5c0.2,0.1,0.4,0,0.5-0.2c0.1-0.2,0.3-0.4,0.6-0.2c2.2,1.5,4.9,1.7,7.4,2.5
		c10.7,2.4,21.4,5.3,32.2,7.5c11.7,1.7,23.4,3.4,35.1,5c1.9,0.3,3.8,0.4,5.7,0.3c17.1-0.3,34.2,0.1,51.2-2.2
		c4.8-0.4,9.7-0.8,14.5-1.4c5.5-0.3,10.7-2,16-3.1c0.8-0.1,1.7-0.3,2.5-0.5c1.4-0.4,3-0.5,4.4-0.9c0.2,0,0.4-0.1,0.6-0.2
		c1.4-0.5,2.8-0.9,4.3-1c3-0.5,6-1.3,9-1.9c1.8-0.4,3.6-0.8,5.4-1.4c4.8-1.6,9.7-3.2,14.4-5.1c4.1-1,7.8-2.9,11.8-4.1
		c2.9-1.1,6.5-1.7,9-3.5c1.3-0.9,2.7-1.6,4.1-2.3c2.6-1.2,4.9-3,7.4-4.3c4.3-1.8,8.3-4.3,12.3-6.7c1.1-0.5,2.2-0.9,3.2-1.6
		c0.7-0.6,1.4-1.2,2.3-1.6c1.7-0.9,3.3-2.4,4.9-3.4c1.1-0.7,2.1-1.6,2.8-2.6c0.2-0.2,0.5-0.4,0.8-0.3c0.1,0,0.1,0,0.2,0
		c0.4,0.1,0.8-0.3,0.7-0.7c-0.1-0.3,0.2-0.7,0.5-0.7c2.7-0.6,4.8-2.8,6.8-4.6c0.4-0.4,0.9-0.6,1.3-0.9c1.7-0.9,3.5-2.5,5.1-3.6
		c0.9-0.6,1.7-1.3,2.6-1.9c0.1-0.1,0.2-0.2,0.3-0.4l0.1-0.7c0.1-0.4,0.6-0.4,0.8-0.1c0.1,0.3,0.5,0.4,0.7,0.1
		c4.2-4.9,9.3-9,13.8-13.6c2.4-2.6,5.4-4.8,7.6-7.6c1.9-2.3,3.8-4.8,5.6-7.1c3.6-4.7,7.2-9.3,10.7-13.9c5.6-7.1,9.8-15.1,14.9-22.5
		c2.6-4.1,5.2-8.2,7.8-12.3c0.1-0.2,0.2-0.4,0.2-0.7c0-0.4,0-0.8,0.1-1.2c0-0.4,0.4-0.6,0.7-0.4c0.3,0.1,0.6,0,0.7-0.3
		c2.4-5.8,5.5-11.3,8.1-17.1c2.1-3.9,2.6-8.3,3.6-12.6c0.1-0.5-0.1-0.9-0.5-1.2c-0.2-0.1-0.3-0.2-0.5-0.3c-0.2-0.1-0.2-0.3-0.1-0.5
		c0.1-0.2,0.3-0.3,0.6-0.2c0.1,0,0.2,0.1,0.3,0.2c0.4,0.2,0.9-0.1,1-0.5c0.4-2.4,0.8-4.8,1.3-7.2c0.1-0.3,0.1-0.6,0.3-0.9
		c1.8-5.2,2.6-10.7,3.5-16.1c1.3-6.8,2.5-13.7,3.8-20.5c1.3-5.5-0.6-10.9-0.4-16.4c-0.3-4.5-0.3-9.1-1.8-13.4
		c-0.5-2.7-1-5.4-1.7-8.1c-0.9-3.6-1.9-7.3-2.8-10.9c-0.4-1.8-0.9-3.6-1.4-5.5c-1.9-7-4.1-13.9-6.4-20.7c-0.6-1.7-1.3-3.4-2.1-5
		c-3.8-7.5-7.1-15.3-12.1-22c-7.9-11.3-16-22.5-23.7-33.8c-7.5-9.9-14.9-19.9-22.3-29.8c-12.6-19.1-25-38.3-37.5-57.4
		c-1.5-2.1-3.6-3.6-5.5-5.3c-5.9-5-11.5-10.3-17.6-15.2C6,154-13.5,137.6-32.5,120.8c-18.4-15.6-36.8-31.1-55.3-46.7
		c-3.1-2.7-6.4-5.2-9.3-8.2c-8.3-8.5-16.5-17-24.7-25.5c-0.6-0.7-1.3-1.2-2.1-1.7c-1.5-0.9-2.7-2.2-4.1-3.2c-0.7-0.5-1.5-1-2.2-1.6
		C-133.8,30.9-137.5,27.9-141.3,25L-141.3,25z"/>
</g>
</svg>
